<mxfile host="65bd71144e">
    <diagram name="Page-1" id="x20RFKxtPtDjbqUovUor">
        <mxGraphModel dx="876" dy="1793" grid="1" gridSize="10" guides="1" tooltips="1" connect="1" arrows="1" fold="1" page="1" pageScale="1" pageWidth="850" pageHeight="1100" math="0" shadow="0">
            <root>
                <mxCell id="0"/>
                <mxCell id="1" parent="0"/>
                <mxCell id="YspYHQnijfxOia4Xg949-13" style="edgeStyle=orthogonalEdgeStyle;rounded=0;orthogonalLoop=1;jettySize=auto;html=1;entryX=0.5;entryY=0;entryDx=0;entryDy=0;" parent="1" source="YspYHQnijfxOia4Xg949-1" target="YspYHQnijfxOia4Xg949-12" edge="1">
                    <mxGeometry relative="1" as="geometry"/>
                </mxCell>
                <mxCell id="YspYHQnijfxOia4Xg949-1" value="Start" style="whiteSpace=wrap;html=1;rounded=1;arcSize=50;fillColor=#f0abfc;" parent="1" vertex="1">
                    <mxGeometry x="261" y="-1019" width="120" height="80" as="geometry"/>
                </mxCell>
                <mxCell id="YspYHQnijfxOia4Xg949-3" value="End" style="whiteSpace=wrap;html=1;rounded=1;arcSize=50;fillColor=#f0abfc;" parent="1" vertex="1">
                    <mxGeometry x="260.66" y="-160" width="120" height="80" as="geometry"/>
                </mxCell>
                <mxCell id="PHLAjSscMgB2TwzK4uWW-3" value="" style="edgeStyle=orthogonalEdgeStyle;rounded=0;orthogonalLoop=1;jettySize=auto;html=1;" parent="1" source="YspYHQnijfxOia4Xg949-12" target="PHLAjSscMgB2TwzK4uWW-1" edge="1">
                    <mxGeometry relative="1" as="geometry"/>
                </mxCell>
                <mxCell id="YspYHQnijfxOia4Xg949-12" value="Input tahun" style="shape=parallelogram;html=1;strokeWidth=2;perimeter=parallelogramPerimeter;whiteSpace=wrap;rounded=1;arcSize=12;size=0.23;fillColor=#7aa2f7;" parent="1" vertex="1">
                    <mxGeometry x="271" y="-909" width="100" height="60" as="geometry"/>
                </mxCell>
                <mxCell id="PHLAjSscMgB2TwzK4uWW-5" value="Yes" style="edgeStyle=orthogonalEdgeStyle;rounded=0;orthogonalLoop=1;jettySize=auto;html=1;entryX=0.5;entryY=0;entryDx=0;entryDy=0;entryPerimeter=0;startArrow=none;" parent="1" source="4" target="PHLAjSscMgB2TwzK4uWW-6" edge="1">
                    <mxGeometry relative="1" as="geometry">
                        <mxPoint x="321" y="-639" as="targetPoint"/>
                    </mxGeometry>
                </mxCell>
                <mxCell id="PHLAjSscMgB2TwzK4uWW-9" style="edgeStyle=orthogonalEdgeStyle;rounded=0;orthogonalLoop=1;jettySize=auto;html=1;entryX=0.5;entryY=1;entryDx=0;entryDy=0;" parent="1" source="PHLAjSscMgB2TwzK4uWW-1" target="8" edge="1">
                    <mxGeometry relative="1" as="geometry">
                        <Array as="points">
                            <mxPoint x="456" y="-754"/>
                        </Array>
                    </mxGeometry>
                </mxCell>
                <mxCell id="PHLAjSscMgB2TwzK4uWW-10" value="No" style="edgeLabel;html=1;align=center;verticalAlign=middle;resizable=0;points=[];" parent="PHLAjSscMgB2TwzK4uWW-9" vertex="1" connectable="0">
                    <mxGeometry x="-0.7704" y="1" relative="1" as="geometry">
                        <mxPoint as="offset"/>
                    </mxGeometry>
                </mxCell>
                <mxCell id="PHLAjSscMgB2TwzK4uWW-1" value="&lt;span style=&quot;font-size: 10px;&quot;&gt;type(tahun) == int&lt;/span&gt;" style="rhombus;whiteSpace=wrap;html=1;fillColor=#bb9af7;" parent="1" vertex="1">
                    <mxGeometry x="266" y="-809" width="110" height="110" as="geometry"/>
                </mxCell>
                <mxCell id="PHLAjSscMgB2TwzK4uWW-19" style="edgeStyle=orthogonalEdgeStyle;rounded=0;orthogonalLoop=1;jettySize=auto;html=1;" parent="1" target="PHLAjSscMgB2TwzK4uWW-18" edge="1">
                    <mxGeometry relative="1" as="geometry">
                        <mxPoint x="321" y="-430" as="sourcePoint"/>
                    </mxGeometry>
                </mxCell>
                <mxCell id="PHLAjSscMgB2TwzK4uWW-20" value="Yes" style="edgeLabel;html=1;align=center;verticalAlign=middle;resizable=0;points=[];" parent="PHLAjSscMgB2TwzK4uWW-19" vertex="1" connectable="0">
                    <mxGeometry x="-0.4128" y="-2" relative="1" as="geometry">
                        <mxPoint as="offset"/>
                    </mxGeometry>
                </mxCell>
                <mxCell id="PHLAjSscMgB2TwzK4uWW-6" value="&lt;font style=&quot;font-size: 10px;&quot;&gt;(tahun % 4 == 0 and tahun % 100 != 0) or tahun % 400 == 0&amp;nbsp;&lt;/font&gt;" style="strokeWidth=2;html=1;shape=mxgraph.flowchart.decision;whiteSpace=wrap;fillColor=#bb9af7;" parent="1" vertex="1">
                    <mxGeometry x="271" y="-529" width="100" height="100" as="geometry"/>
                </mxCell>
                <mxCell id="PHLAjSscMgB2TwzK4uWW-12" value="tahun bukan merupakan tahun kabisat" style="shape=parallelogram;html=1;strokeWidth=2;perimeter=parallelogramPerimeter;whiteSpace=wrap;rounded=1;arcSize=12;size=0.23;fillColor=#d19a66;" parent="1" vertex="1">
                    <mxGeometry x="415" y="-509" width="133.33" height="80" as="geometry"/>
                </mxCell>
                <mxCell id="PHLAjSscMgB2TwzK4uWW-13" style="edgeStyle=orthogonalEdgeStyle;rounded=0;orthogonalLoop=1;jettySize=auto;html=1;entryX=0.116;entryY=0.362;entryDx=0;entryDy=0;entryPerimeter=0;" parent="1" target="PHLAjSscMgB2TwzK4uWW-12" edge="1">
                    <mxGeometry relative="1" as="geometry">
                        <mxPoint x="371" y="-480.03999999999996" as="sourcePoint"/>
                    </mxGeometry>
                </mxCell>
                <mxCell id="PHLAjSscMgB2TwzK4uWW-16" value="No" style="edgeLabel;html=1;align=center;verticalAlign=middle;resizable=0;points=[];" parent="PHLAjSscMgB2TwzK4uWW-13" vertex="1" connectable="0">
                    <mxGeometry x="-0.361" y="-1" relative="1" as="geometry">
                        <mxPoint as="offset"/>
                    </mxGeometry>
                </mxCell>
                <mxCell id="PHLAjSscMgB2TwzK4uWW-21" style="edgeStyle=orthogonalEdgeStyle;rounded=0;orthogonalLoop=1;jettySize=auto;html=1;entryX=0.5;entryY=0;entryDx=0;entryDy=0;" parent="1" source="PHLAjSscMgB2TwzK4uWW-18" target="10" edge="1">
                    <mxGeometry relative="1" as="geometry">
                        <mxPoint x="321" y="-170" as="targetPoint"/>
                    </mxGeometry>
                </mxCell>
                <mxCell id="PHLAjSscMgB2TwzK4uWW-18" value="tahun merupakan tahun kabisat" style="shape=parallelogram;html=1;strokeWidth=2;perimeter=parallelogramPerimeter;whiteSpace=wrap;rounded=1;arcSize=12;size=0.23;fillColor=#d19a66;" parent="1" vertex="1">
                    <mxGeometry x="254" y="-380" width="133.33" height="80" as="geometry"/>
                </mxCell>
                <mxCell id="2" value="" style="edgeStyle=orthogonalEdgeStyle;rounded=0;orthogonalLoop=1;jettySize=auto;html=1;entryX=0.5;entryY=0;entryDx=0;entryDy=0;entryPerimeter=0;endArrow=none;" edge="1" parent="1" source="PHLAjSscMgB2TwzK4uWW-1" target="4">
                    <mxGeometry relative="1" as="geometry">
                        <mxPoint x="321" y="-659" as="targetPoint"/>
                        <mxPoint x="321" y="-699" as="sourcePoint"/>
                    </mxGeometry>
                </mxCell>
                <mxCell id="3" value="Yes" style="edgeLabel;html=1;align=center;verticalAlign=middle;resizable=0;points=[];" vertex="1" connectable="0" parent="2">
                    <mxGeometry x="-0.2116" y="-2" relative="1" as="geometry">
                        <mxPoint as="offset"/>
                    </mxGeometry>
                </mxCell>
                <mxCell id="6" value="No" style="edgeStyle=none;html=1;entryX=0;entryY=0.5;entryDx=0;entryDy=0;" edge="1" parent="1" source="4" target="5">
                    <mxGeometry relative="1" as="geometry"/>
                </mxCell>
                <mxCell id="4" value="tahun &amp;gt; 0" style="rhombus;whiteSpace=wrap;html=1;fillColor=#bb9af7;" vertex="1" parent="1">
                    <mxGeometry x="267" y="-673.5" width="109" height="109" as="geometry"/>
                </mxCell>
                <mxCell id="7" style="edgeStyle=none;html=1;entryX=1;entryY=0.5;entryDx=0;entryDy=0;exitX=1;exitY=0.5;exitDx=0;exitDy=0;" edge="1" parent="1" source="5" target="YspYHQnijfxOia4Xg949-12">
                    <mxGeometry relative="1" as="geometry">
                        <Array as="points">
                            <mxPoint x="596" y="-619"/>
                            <mxPoint x="596" y="-759"/>
                            <mxPoint x="596" y="-879"/>
                            <mxPoint x="476" y="-879"/>
                        </Array>
                    </mxGeometry>
                </mxCell>
                <mxCell id="5" value="angka tahun tidak boleh minus!" style="shape=parallelogram;perimeter=parallelogramPerimeter;whiteSpace=wrap;html=1;fixedSize=1;fillColor=#d19a66;" vertex="1" parent="1">
                    <mxGeometry x="415" y="-649" width="120" height="60" as="geometry"/>
                </mxCell>
                <mxCell id="9" style="edgeStyle=none;html=1;entryX=1;entryY=0.5;entryDx=0;entryDy=0;" edge="1" parent="1" source="8" target="YspYHQnijfxOia4Xg949-12">
                    <mxGeometry relative="1" as="geometry">
                        <Array as="points">
                            <mxPoint x="456" y="-879"/>
                        </Array>
                    </mxGeometry>
                </mxCell>
                <mxCell id="8" value="Inputan harus berupa bilangan bulat (tahun)!" style="shape=parallelogram;perimeter=parallelogramPerimeter;whiteSpace=wrap;html=1;fixedSize=1;fillColor=#d19a66;" vertex="1" parent="1">
                    <mxGeometry x="396" y="-849" width="120" height="60" as="geometry"/>
                </mxCell>
                <mxCell id="13" style="edgeStyle=none;html=1;entryX=0.5;entryY=0;entryDx=0;entryDy=0;" edge="1" parent="1" source="10" target="YspYHQnijfxOia4Xg949-3">
                    <mxGeometry relative="1" as="geometry"/>
                </mxCell>
                <mxCell id="10" value="Program Selesai!" style="shape=parallelogram;html=1;strokeWidth=2;perimeter=parallelogramPerimeter;whiteSpace=wrap;rounded=1;arcSize=12;size=0.23;fillColor=#d19a66;" vertex="1" parent="1">
                    <mxGeometry x="254" y="-270" width="133.33" height="80" as="geometry"/>
                </mxCell>
            </root>
        </mxGraphModel>
    </diagram>
</mxfile>